<svg width="24" height="24" viewBox="0 0 24 24" fill="none" xmlns="http://www.w3.org/2000/svg">
<path d="M4.50708 11.1016H19.5071" stroke="white" stroke-linecap="round"/>
<path d="M4.50708 17.1016H19.5071" stroke="white" stroke-linecap="round"/>
<path d="M16.5071 15.1016C16.3093 15.1016 16.116 15.0429 15.9515 14.933C15.7871 14.8232 15.6589 14.667 15.5832 14.4842C15.5075 14.3015 15.4877 14.1005 15.5263 13.9065C15.5649 13.7125 15.6601 13.5343 15.8 13.3945C15.9398 13.2546 16.118 13.1594 16.312 13.1208C16.506 13.0822 16.707 13.102 16.8898 13.1777C17.0725 13.2534 17.2287 13.3815 17.3386 13.546C17.4484 13.7104 17.5071 13.9038 17.5071 14.1016C17.5071 14.3668 17.4017 14.6211 17.2142 14.8087C17.0267 14.9962 16.7723 15.1016 16.5071 15.1016ZM12.0071 15.1016C11.8093 15.1016 11.616 15.0429 11.4515 14.933C11.2871 14.8232 11.1589 14.667 11.0832 14.4842C11.0075 14.3015 10.9877 14.1005 11.0263 13.9065C11.0649 13.7125 11.1601 13.5343 11.3 13.3945C11.4398 13.2546 11.618 13.1594 11.812 13.1208C12.006 13.0822 12.207 13.102 12.3898 13.1777C12.5725 13.2534 12.7287 13.3815 12.8386 13.546C12.9484 13.7104 13.0071 13.9038 13.0071 14.1016C13.0071 14.3668 12.9017 14.6211 12.7142 14.8087C12.5267 14.9962 12.2723 15.1016 12.0071 15.1016ZM7.50708 15.1016C7.3093 15.1016 7.11596 15.0429 6.95151 14.933C6.78706 14.8232 6.65889 14.667 6.5832 14.4842C6.50751 14.3015 6.48771 14.1005 6.5263 13.9065C6.56488 13.7125 6.66012 13.5343 6.79997 13.3945C6.93983 13.2546 7.11801 13.1594 7.31199 13.1208C7.50597 13.0822 7.70704 13.102 7.88976 13.1777C8.07249 13.2534 8.22867 13.3815 8.33855 13.546C8.44843 13.7104 8.50708 13.9038 8.50708 14.1016C8.50708 14.3668 8.40172 14.6211 8.21419 14.8087C8.02665 14.9962 7.7723 15.1016 7.50708 15.1016Z" stroke="white"/>
<path d="M6.50708 19.3966V17.1016Z" fill="white"/>
<path d="M6.50708 19.3966V17.1016" stroke="white" stroke-linecap="round"/>
<path d="M17.5071 19.3966V17.1016" stroke="white" stroke-linecap="round"/>
<path fill-rule="evenodd" clip-rule="evenodd" d="M20.007 7.062L19.3 7.769L17.966 9.104L17.259 8.396L18.107 7.548H4V6.548H18.079L17.237 5.707L17.945 5L19.299 6.354L20.006 7.061L20.007 7.062Z" fill="white"/>
</svg>
