<svg id="icons_checklist_checklist-24" data-name="icons/checklist/checklist-24" xmlns="http://www.w3.org/2000/svg" xmlns:xlink="http://www.w3.org/1999/xlink" width="24" height="24" viewBox="0 0 24 24">
  <defs>
    <clipPath id="clip-path">
      <path id="icon" d="M13.5,17H.5a.5.5,0,0,1-.5-.5V1.5A.5.5,0,0,1,.5,1H2V2H1V16H13V2H12V1h1.5a.5.5,0,0,1,.5.5v15A.5.5,0,0,1,13.5,17ZM4,13H2V12H4v1Zm3.928-1.427a.5.5,0,0,1-.355-.146l-1.4-1.4.707-.707,1.05,1.051,2.791-2.791.707.707L8.282,11.426A.5.5,0,0,1,7.928,11.572ZM4,10H2V9H4v1ZM4,7H2V6H4V7Zm6.5-3h-7A.5.5,0,0,1,3,3.5V.5A.5.5,0,0,1,3.5,0h7a.5.5,0,0,1,.5.5v3A.5.5,0,0,1,10.5,4ZM4,1V3h6V1Z" transform="translate(5 3)" fill="#20607e"/>
    </clipPath>
  </defs>
  <g id="Group_96" data-name="Group 96">
    <path id="icon-2" data-name="icon" d="M13.5,17H.5a.5.5,0,0,1-.5-.5V1.5A.5.5,0,0,1,.5,1H2V2H1V16H13V2H12V1h1.5a.5.5,0,0,1,.5.5v15A.5.5,0,0,1,13.5,17ZM4,13H2V12H4v1Zm3.928-1.427a.5.5,0,0,1-.355-.146l-1.4-1.4.707-.707,1.05,1.051,2.791-2.791.707.707L8.282,11.426A.5.5,0,0,1,7.928,11.572ZM4,10H2V9H4v1ZM4,7H2V6H4V7Zm6.5-3h-7A.5.5,0,0,1,3,3.5V.5A.5.5,0,0,1,3.5,0h7a.5.5,0,0,1,.5.5v3A.5.5,0,0,1,10.5,4ZM4,1V3h6V1Z" transform="translate(5 3)" fill="#20607e"/>
  </g>
</svg>
