<svg width="24" height="24" viewBox="0 0 24 24" fill="none" xmlns="http://www.w3.org/2000/svg">
<path fill-rule="evenodd" clip-rule="evenodd" d="M4.518 20C4.38539 20 4.25821 19.9473 4.16445 19.8536C4.07068 19.7598 4.018 19.6326 4.018 19.5L4 4.5C4.00001 4.43423 4.01301 4.3691 4.03823 4.30835C4.06346 4.24761 4.10042 4.19244 4.147 4.146C4.24071 4.05253 4.36765 4.00003 4.5 4H7.5C7.63261 4 7.75979 4.05268 7.85355 4.14645C7.94732 4.24021 8 4.36739 8 4.5V12.99H8.794L11.647 10.14C11.6931 10.0934 11.7481 10.0564 11.8088 10.0313C11.8694 10.0063 11.9344 9.99357 12 9.994H13.5C13.6326 9.994 13.7598 10.0467 13.8536 10.1404C13.9473 10.2342 14 10.3614 14 10.494V12.994H14.793L17.647 10.144C17.6931 10.097 17.748 10.0595 17.8085 10.0338C17.8691 10.0081 17.9342 9.99454 18 9.994H19.5C19.6326 9.994 19.7598 10.0467 19.8536 10.1404C19.9473 10.2342 20 10.3614 20 10.494V14.1C22.2822 14.5633 24 16.581 24 19C24 21.7614 21.7614 24 19 24C16.5774 24 14.5573 22.2771 14.098 19.9898L4.518 20ZM14 18.9904C14.0052 16.2334 16.2418 14 19 14V10.993H18.207L15.354 13.843C15.3075 13.8894 15.2523 13.9262 15.1915 13.9512C15.1308 13.9763 15.0657 13.9891 15 13.989H13.5C13.3674 13.989 13.2402 13.9363 13.1464 13.8426C13.0527 13.7488 13 13.6216 13 13.489V10.989H12.207L9.354 13.843C9.30748 13.8894 9.25227 13.9262 9.19153 13.9512C9.13079 13.9763 9.0657 13.9891 9 13.989H7.5C7.36739 13.989 7.24021 13.9363 7.14645 13.8426C7.05268 13.7488 7 13.6216 7 13.489V5H5L5.015 19L14 18.9904ZM15.7771 22.8224C15.5676 22.6455 15.3728 22.4517 15.1948 22.243L16.8241 20.6631L16.4819 20.3209C15.9685 19.8075 15.9685 19.0374 16.4819 18.5241L17.6797 17.3262C17.8509 17.1551 18.1075 17.1551 18.2787 17.3262L20.6744 19.8075C20.8455 19.9786 20.8455 20.2353 20.6744 20.4064L19.4765 21.6043C18.9632 22.1176 18.1931 22.1176 17.6797 21.6043L17.3375 21.262L15.7771 22.8224ZM20.6744 17.9251C20.5033 18.0963 20.5033 18.3529 20.6744 18.5241C20.8455 18.6952 21.1022 18.6952 21.2733 18.5241L21.8722 17.9251C22.0434 17.754 22.0434 17.4973 21.8722 17.3262C21.7011 17.1551 21.4444 17.1551 21.2733 17.3262L20.6744 17.9251ZM19.4765 17.3262C19.3054 17.1551 19.3054 16.8984 19.4765 16.7273L20.0754 16.1283C20.2466 15.9572 20.5033 15.9572 20.6744 16.1283C20.8455 16.2995 20.8455 16.5561 20.6744 16.7273L20.0754 17.3262C19.9043 17.4973 19.6476 17.4973 19.4765 17.3262Z" fill="white"/>
</svg>
