<svg width="24" height="24" viewBox="0 0 24 24" fill="none" xmlns="http://www.w3.org/2000/svg">
<path fill-rule="evenodd" clip-rule="evenodd" d="M19 24C21.7614 24 24 21.7614 24 19C24 16.2386 21.7614 14 19 14C16.2386 14 14 16.2386 14 19C14 21.7614 16.2386 24 19 24ZM15.1943 22.243C15.3723 22.4517 15.5671 22.6455 15.7767 22.8224L17.337 21.262L17.6792 21.6043C18.1926 22.1176 18.9627 22.1176 19.476 21.6043L20.6739 20.4064C20.845 20.2353 20.845 19.9786 20.6739 19.8075L18.2782 17.3262C18.107 17.1551 17.8504 17.1551 17.6792 17.3262L16.4814 18.5241C15.968 19.0374 15.968 19.8075 16.4814 20.3209L16.8236 20.6631L15.1943 22.243ZM20.6739 18.5241C20.5028 18.3529 20.5028 18.0963 20.6739 17.9251L21.2728 17.3262C21.4439 17.1551 21.7006 17.1551 21.8718 17.3262C22.0429 17.4973 22.0429 17.754 21.8718 17.9251L21.2728 18.5241C21.1017 18.6952 20.845 18.6952 20.6739 18.5241ZM19.476 16.7273C19.3049 16.8984 19.3049 17.1551 19.476 17.3262C19.6472 17.4973 19.9038 17.4973 20.075 17.3262L20.6739 16.7273C20.845 16.5561 20.845 16.2995 20.6739 16.1283C20.5028 15.9572 20.2461 15.9572 20.075 16.1283L19.476 16.7273Z" fill="white"/>
<path d="M4.50659 11.1028H19.5" stroke="white" stroke-linecap="round"/>
<path fill-rule="evenodd" clip-rule="evenodd" d="M14.6117 16.6016H4.50684C4.23069 16.6016 4.00684 16.8254 4.00684 17.1016C4.00684 17.3777 4.23069 17.6016 4.50684 17.6016H14.1982C14.3002 17.2508 14.4396 16.9159 14.6117 16.6016Z" fill="white"/>
<path d="M16.5014 15.1011C16.3037 15.1011 16.1104 15.0424 15.946 14.9326C15.7817 14.8228 15.6535 14.6667 15.5779 14.484C15.5022 14.3014 15.4824 14.1004 15.521 13.9065C15.5596 13.7126 15.6548 13.5345 15.7946 13.3947C15.9344 13.2549 16.1125 13.1597 16.3064 13.1211C16.5003 13.0826 16.7012 13.1024 16.8839 13.178C17.0665 13.2537 17.2226 13.3818 17.3325 13.5462C17.4423 13.7105 17.5009 13.9038 17.5009 14.1015C17.5009 14.3666 17.3956 14.6208 17.2082 14.8083C17.0207 14.9957 16.7665 15.1011 16.5014 15.1011ZM12.0033 15.1011C11.8056 15.1011 11.6124 15.0424 11.448 14.9326C11.2836 14.8228 11.1555 14.6667 11.0799 14.484C11.0042 14.3014 10.9844 14.1004 11.023 13.9065C11.0615 13.7126 11.1567 13.5345 11.2965 13.3947C11.4363 13.2549 11.6144 13.1597 11.8083 13.1211C12.0022 13.0826 12.2032 13.1024 12.3858 13.178C12.5685 13.2537 12.7246 13.3818 12.8344 13.5462C12.9443 13.7105 13.0029 13.9038 13.0029 14.1015C13.0029 14.3666 12.8976 14.6208 12.7101 14.8083C12.5227 14.9957 12.2684 15.1011 12.0033 15.1011ZM7.5053 15.1011C7.30761 15.1011 7.11435 15.0424 6.94997 14.9326C6.7856 14.8228 6.65748 14.6667 6.58182 14.484C6.50617 14.3014 6.48638 14.1004 6.52494 13.9065C6.56351 13.7126 6.65871 13.5345 6.7985 13.3947C6.93829 13.2549 7.1164 13.1597 7.3103 13.1211C7.50419 13.0826 7.70517 13.1024 7.88782 13.178C8.07046 13.2537 8.22657 13.3818 8.33641 13.5462C8.44624 13.7105 8.50486 13.9038 8.50486 14.1015C8.50486 14.3666 8.39955 14.6208 8.2121 14.8083C8.02464 14.9957 7.7704 15.1011 7.5053 15.1011Z" stroke="white"/>
<path d="M6.50574 19.3942V17.1002Z" fill="white"/>
<path d="M6.50574 19.3942V17.1002" stroke="white" stroke-linecap="round"/>
<mask id="path-7-inside-1_2446_22636" fill="white">
<path fill-rule="evenodd" clip-rule="evenodd" d="M20 7.0611L19.2933 7.76779L17.9599 9.10221L17.2532 8.39451L18.1008 7.54689H4V6.54732H18.0728L17.2312 5.70669L17.9389 5L19.2923 6.35341L19.999 7.0601L20 7.0611Z"/>
</mask>
<path fill-rule="evenodd" clip-rule="evenodd" d="M20 7.0611L19.2933 7.76779L17.9599 9.10221L17.2532 8.39451L18.1008 7.54689H4V6.54732H18.0728L17.2312 5.70669L17.9389 5L19.2923 6.35341L19.999 7.0601L20 7.0611Z" fill="white"/>
<path d="M20 7.0611L20.7071 7.76821L21.4142 7.0611L20.7071 6.35399L20 7.0611ZM19.2933 7.76779L18.5862 7.06068L18.5859 7.06095L19.2933 7.76779ZM17.9599 9.10221L17.2523 9.80881L17.9597 10.5172L18.6673 9.80905L17.9599 9.10221ZM17.2532 8.39451L16.5461 7.68741L15.8395 8.39401L16.5456 9.10112L17.2532 8.39451ZM18.1008 7.54689L18.8079 8.25399L20.515 6.54689H18.1008V7.54689ZM4 7.54689H3V8.54689H4V7.54689ZM4 6.54732V5.54732H3V6.54732H4ZM18.0728 6.54732V7.54732H20.4891L18.7795 5.8398L18.0728 6.54732ZM17.2312 5.70669L16.5246 4.99909L15.8161 5.70661L16.5245 6.41422L17.2312 5.70669ZM17.9389 5L18.646 4.29289L17.9394 3.58629L17.2323 4.29239L17.9389 5ZM19.2929 6.35399L18.5862 7.06068L20.0004 8.4749L20.7071 7.76821L19.2929 6.35399ZM18.5859 7.06095L17.2525 8.39536L18.6673 9.80905L20.0007 8.47463L18.5859 7.06095ZM18.6675 8.3956L17.9608 7.68791L16.5456 9.10112L17.2523 9.80881L18.6675 8.3956ZM17.9603 9.10162L18.8079 8.25399L17.3937 6.83978L16.5461 7.68741L17.9603 9.10162ZM18.1008 6.54689H4V8.54689H18.1008V6.54689ZM5 7.54689V6.54732H3V7.54689H5ZM4 7.54732H18.0728V5.54732H4V7.54732ZM18.7795 5.8398L17.9379 4.99916L16.5245 6.41422L17.3662 7.25485L18.7795 5.8398ZM17.9378 6.4143L18.6455 5.70761L17.2323 4.29239L16.5246 4.99909L17.9378 6.4143ZM17.2318 5.70711L18.5852 7.06051L19.9994 5.6463L18.646 4.29289L17.2318 5.70711ZM18.5852 7.06051L19.2919 7.76721L20.7061 6.35299L19.9994 5.6463L18.5852 7.06051ZM19.2919 7.76721L19.2929 7.76821L20.7071 6.35399L20.7061 6.35299L19.2919 7.76721Z" fill="white" mask="url(#path-7-inside-1_2446_22636)"/>
</svg>
