<svg xmlns="http://www.w3.org/2000/svg" width="16" height="16" viewBox="0 0 16 16">
  <g id="icon_Gruppierung" data-name="icon Gruppierung" transform="translate(12581 -701)">
    <g id="Ellipse_342" data-name="Ellipse 342" transform="translate(-12581 701)" fill="none" stroke="#fff" stroke-width="1">
      <circle cx="8" cy="8" r="8" stroke="none"/>
      <circle cx="8" cy="8" r="7.5" fill="none"/>
    </g>
    <g id="Group_1089" data-name="Group 1089" transform="translate(-1.779 -2)">
      <path id="Icon_material-settings" data-name="Icon material-settings" d="M6.907,5.179a1.332,1.332,0,0,0,0-.389l.431-.327a.1.1,0,0,0,.024-.127l-.408-.687a.1.1,0,0,0-.124-.044l-.508.2a1.5,1.5,0,0,0-.345-.195L5.9,3.083A.1.1,0,0,0,5.8,3H4.983a.1.1,0,0,0-.1.083l-.078.526a1.579,1.579,0,0,0-.345.195l-.508-.2a.1.1,0,0,0-.124.044l-.408.687a.1.1,0,0,0,.024.127l.431.327a1.332,1.332,0,0,0,0,.389l-.431.327a.1.1,0,0,0-.024.127l.408.687a.1.1,0,0,0,.124.044l.508-.2a1.5,1.5,0,0,0,.345.195l.078.526a.1.1,0,0,0,.1.083H5.8a.1.1,0,0,0,.1-.083l.078-.526a1.579,1.579,0,0,0,.345-.195l.508.2a.1.1,0,0,0,.124-.044l.408-.687a.1.1,0,0,0-.024-.127Zm-1.516.5a.695.695,0,1,1,.714-.695A.705.705,0,0,1,5.391,5.679Z" transform="translate(-12576.429 703)" fill="#fff"/>
      <path id="Icon_material-settings-2" data-name="Icon material-settings" d="M6.907,5.179a1.332,1.332,0,0,0,0-.389l.431-.327a.1.1,0,0,0,.024-.127l-.408-.687a.1.1,0,0,0-.124-.044l-.508.2a1.5,1.5,0,0,0-.345-.195L5.9,3.083A.1.1,0,0,0,5.8,3H4.983a.1.1,0,0,0-.1.083l-.078.526a1.579,1.579,0,0,0-.345.195l-.508-.2a.1.1,0,0,0-.124.044l-.408.687a.1.1,0,0,0,.024.127l.431.327a1.332,1.332,0,0,0,0,.389l-.431.327a.1.1,0,0,0-.024.127l.408.687a.1.1,0,0,0,.124.044l.508-.2a1.5,1.5,0,0,0,.345.195l.078.526a.1.1,0,0,0,.1.083H5.8a.1.1,0,0,0,.1-.083l.078-.526a1.579,1.579,0,0,0,.345-.195l.508.2a.1.1,0,0,0,.124-.044l.408-.687a.1.1,0,0,0-.024-.127Zm-1.516.5a.695.695,0,1,1,.714-.695A.705.705,0,0,1,5.391,5.679Z" transform="translate(-12579.406 708.109)" fill="#fff"/>
      <path id="Icon_material-settings-3" data-name="Icon material-settings" d="M6.907,5.179a1.332,1.332,0,0,0,0-.389l.431-.327a.1.1,0,0,0,.024-.127l-.408-.687a.1.1,0,0,0-.124-.044l-.508.2a1.5,1.5,0,0,0-.345-.195L5.9,3.083A.1.1,0,0,0,5.8,3H4.983a.1.1,0,0,0-.1.083l-.078.526a1.579,1.579,0,0,0-.345.195l-.508-.2a.1.1,0,0,0-.124.044l-.408.687a.1.1,0,0,0,.024.127l.431.327a1.332,1.332,0,0,0,0,.389l-.431.327a.1.1,0,0,0-.024.127l.408.687a.1.1,0,0,0,.124.044l.508-.2a1.5,1.5,0,0,0,.345.195l.078.526a.1.1,0,0,0,.1.083H5.8a.1.1,0,0,0,.1-.083l.078-.526a1.579,1.579,0,0,0,.345-.195l.508.2a.1.1,0,0,0,.124-.044l.408-.687a.1.1,0,0,0-.024-.127Zm-1.516.5a.695.695,0,1,1,.714-.695A.705.705,0,0,1,5.391,5.679Z" transform="translate(-12573.818 708.109)" fill="#fff"/>
    </g>
  </g>
</svg>
