<svg id="icons_list-view_list-view-24" data-name="icons/list-view/list-view-24" xmlns="http://www.w3.org/2000/svg" xmlns:xlink="http://www.w3.org/1999/xlink" width="24" height="24" viewBox="0 0 24 24">
  <defs>
    <clipPath id="clip-path">
      <path id="icon" d="M2.369,9V8H15V9ZM0,9V8H.986V9ZM2.369,5V4H15V5ZM0,5V4H.986V5ZM2.369,1V0H15V1ZM0,1V0H.986V1Z" transform="translate(5 8)" fill="#20607e"/>
    </clipPath>
  </defs>
  <g id="Group_2" data-name="Group 2">
    <path id="icon-2" data-name="icon" d="M2.369,9V8H15V9ZM0,9V8H.986V9ZM2.369,5V4H15V5ZM0,5V4H.986V5ZM2.369,1V0H15V1ZM0,1V0H.986V1Z" transform="translate(5 8)" fill="#20607e"/>
  </g>
</svg>
