<svg id="measure-not-effective-problem-not-solved-16" xmlns="http://www.w3.org/2000/svg" xmlns:xlink="http://www.w3.org/1999/xlink" width="16" height="16" viewBox="0 0 16 16">
  <defs>
    <clipPath id="clip-path">
      <path id="icon" d="M0,8a8,8,0,1,1,8,8A8.009,8.009,0,0,1,0,8Zm7.6,7.189V8.4H.811A7.21,7.21,0,0,0,7.6,15.189Zm.8,0A7.21,7.21,0,0,0,15.189,8.4H8.4ZM15.189,7.6A7.21,7.21,0,0,0,8.4.811V7.6ZM7.6,7.6V.811A7.21,7.21,0,0,0,.811,7.6Z" fill="none"/>
    </clipPath>
  </defs>
  <g id="Group_85" data-name="Group 85" transform="translate(6 6)">
    <g id="Group_1549" data-name="Group 1549" transform="translate(2.5 2.5)">
      <g id="Ellipse_373" data-name="Ellipse 373" transform="translate(-7.5 -7.5)" fill="none" stroke="#20607e" stroke-width="1">
        <circle cx="7" cy="7" r="7" stroke="none"/>
        <circle cx="7" cy="7" r="6.5" fill="none"/>
      </g>
      <line id="Line_239" data-name="Line 239" y2="13" transform="translate(4.096 -5.096) rotate(45)" fill="none" stroke="#20607e" stroke-width="1"/>
    </g>
  </g>
</svg>
