<svg id="analysis-completed-measure-determined-16" xmlns="http://www.w3.org/2000/svg" xmlns:xlink="http://www.w3.org/1999/xlink" width="16" height="16" viewBox="0 0 16 16">
  <defs>
    <clipPath id="clip-path">
      <path id="icon" d="M0,8a8,8,0,1,1,8,8A8.009,8.009,0,0,1,0,8Zm7.6,7.189V8.4H.811A7.21,7.21,0,0,0,7.6,15.189Zm.8,0A7.21,7.21,0,0,0,15.189,8.4H8.4ZM15.189,7.6A7.21,7.21,0,0,0,8.4.811V7.6ZM7.6,7.6V.811A7.21,7.21,0,0,0,.811,7.6Z" transform="translate(2 2)" fill="none"/>
    </clipPath>
  </defs>
  <g id="Group_85" data-name="Group 85">
    <g id="Group_1549" data-name="Group 1549" transform="translate(-1 -1)">
      <g id="Ellipse_373" data-name="Ellipse 373" transform="translate(2 2)" fill="none" stroke="#20607e" stroke-width="1">
        <circle cx="7" cy="7" r="7" stroke="none"/>
        <circle cx="7" cy="7" r="6.5" fill="none"/>
      </g>
      <g id="Subtraction_2" data-name="Subtraction 2" transform="translate(-22170.004 -9590.999)" fill="#20607e">
        <path d="M 22185.482421875 9599.5 L 22179.50390625 9599.5 L 22179.50390625 9593.517578125 C 22182.69140625 9593.76171875 22185.2421875 9596.3134765625 22185.482421875 9599.5 Z" stroke="none"/>
        <path d="M 22184.919921875 9599 C 22184.498046875 9596.4912109375 22182.513671875 9594.5048828125 22180.00390625 9594.08203125 L 22180.00390625 9599 L 22184.919921875 9599 M 22186.001953125 9600 L 22179.00390625 9600 L 22179.00390625 9592.9990234375 C 22182.86328125 9592.9990234375 22186.001953125 9596.138671875 22186.001953125 9599.99609375 L 22186.001953125 9600 Z" stroke="none" fill="#20607e"/>
      </g>
    </g>
  </g>
</svg>
