<svg xmlns="http://www.w3.org/2000/svg" xmlns:xlink="http://www.w3.org/1999/xlink" width="16" height="16" viewBox="0 0 16 16">
  <defs>
    <clipPath id="clip-path">
      <path id="icon" d="M0,8a8,8,0,1,1,8,8A8.009,8.009,0,0,1,0,8Zm7.6,7.189V8.4H.811A7.21,7.21,0,0,0,7.6,15.189Zm.8,0A7.21,7.21,0,0,0,15.189,8.4H8.4ZM15.189,7.6A7.21,7.21,0,0,0,8.4.811V7.6ZM7.6,7.6V.811A7.21,7.21,0,0,0,.811,7.6Z" transform="translate(2.001 2)" fill="none"/>
    </clipPath>
  </defs>
  <g id="measure-implemented-16" transform="translate(16 16) rotate(-180)">
    <g id="Group_85" data-name="Group 85" transform="translate(-7 -6.999)">
      <g id="Group_1549" data-name="Group 1549">
        <g id="Ellipse_374" data-name="Ellipse 374" transform="translate(8 8)" fill="none" stroke="#20607e" stroke-width="1">
          <circle cx="7" cy="7" r="7" stroke="none"/>
          <circle cx="7" cy="7" r="6.5" fill="none"/>
        </g>
        <g id="Subtraction_3" data-name="Subtraction 3" transform="translate(-22103 -9585.001)" fill="#20607e">
          <path d="M 22117.5 9606.4814453125 C 22114.1484375 9606.224609375 22111.5 9603.416015625 22111.5 9600.001953125 C 22111.5 9598.2646484375 22112.17578125 9596.6318359375 22113.404296875 9595.4033203125 C 22114.630859375 9594.17578125 22116.263671875 9593.5 22118 9593.5 C 22119.736328125 9593.5 22121.3671875 9594.17578125 22122.595703125 9595.40234375 C 22123.705078125 9596.513671875 22124.36328125 9597.953125 22124.48046875 9599.4990234375 L 22118 9599.4990234375 L 22117.5 9599.4990234375 L 22117.5 9599.9990234375 L 22117.5 9606.4814453125 Z" stroke="none"/>
          <path d="M 22117 9605.9169921875 L 22117 9598.9990234375 L 22123.91796875 9598.9990234375 C 22123.712890625 9597.7783203125 22123.13671875 9596.6513671875 22122.2421875 9595.755859375 C 22121.109375 9594.6240234375 22119.6015625 9594 22118 9594 C 22116.396484375 9594 22114.890625 9594.6240234375 22113.7578125 9595.7568359375 C 22112.625 9596.890625 22112 9598.3984375 22112 9600.001953125 C 22112 9602.96875 22114.166015625 9605.439453125 22117 9605.9169921875 M 22118 9607.0009765625 C 22114.140625 9607 22111 9603.8603515625 22111 9600.001953125 C 22111 9598.130859375 22111.728515625 9596.3720703125 22113.05078125 9595.0498046875 C 22114.37109375 9593.728515625 22116.130859375 9593 22118 9593 C 22119.87109375 9593 22121.626953125 9593.7275390625 22122.94921875 9595.048828125 C 22124.26953125 9596.3720703125 22125 9598.1298828125 22125 9599.9990234375 L 22118 9599.9990234375 L 22118 9607.0009765625 Z" stroke="none" fill="#20607e"/>
        </g>
      </g>
    </g>
  </g>
</svg>
