<svg id="measure-effective-problem-eliminated-24" xmlns="http://www.w3.org/2000/svg" xmlns:xlink="http://www.w3.org/1999/xlink" width="24" height="24" viewBox="0 0 24 24">
  <defs>
    <clipPath id="clip-path">
      <path id="icon" d="M0,12A12,12,0,1,1,12,24,12.013,12.013,0,0,1,0,12ZM11.4,22.784V12.6H1.216A10.815,10.815,0,0,0,11.4,22.784Zm1.2,0A10.815,10.815,0,0,0,22.784,12.6H12.6ZM22.784,11.4A10.815,10.815,0,0,0,12.6,1.216V11.4ZM11.4,11.4V1.216A10.815,10.815,0,0,0,1.216,11.4Z" transform="translate(2 2)" fill="none"/>
    </clipPath>
  </defs>
  <g id="Group_85" data-name="Group 85">
    <g id="Group_1549" data-name="Group 1549">
      <g id="Ellipse_373" data-name="Ellipse 373" transform="translate(2 2)" fill="#20607e" stroke="#20607e" stroke-width="1">
        <circle cx="10" cy="10" r="10" stroke="none"/>
        <circle cx="10" cy="10" r="9.5" fill="none"/>
      </g>
    </g>
  </g>
</svg>
