<svg width="24" height="24" viewBox="0 0 24 24" fill="none" xmlns="http://www.w3.org/2000/svg">
<path fill-rule="evenodd" clip-rule="evenodd" d="M17.3536 3.64645C17.1583 3.45118 16.8417 3.45118 16.6465 3.64645L5.64646 14.6464C5.58238 14.7105 5.53692 14.7908 5.51494 14.8787L4.51494 18.8787C4.47234 19.0491 4.52227 19.2294 4.64646 19.3536C4.77065 19.4777 4.95089 19.5277 5.12128 19.4851L9.12128 18.4851C9.20919 18.4631 9.28948 18.4176 9.35356 18.3536L20.3536 7.35355C20.5488 7.15829 20.5488 6.84171 20.3536 6.64645L17.3536 3.64645ZM5.68719 18.3128L6.45149 15.2556L17 4.70711L19.2929 7L17.5 8.7929L16.3536 7.64648L15.6465 8.35359L16.7929 9.5L8.74439 17.5485L5.68719 18.3128Z" fill="#20607E"/>
</svg>
