<svg width="24" height="24" viewBox="0 0 24 24" fill="none" xmlns="http://www.w3.org/2000/svg">
<path d="M4.518 20C4.38539 20 4.25821 19.9473 4.16445 19.8536C4.07068 19.7598 4.018 19.6326 4.018 19.5L4 4.5C4.00001 4.43423 4.01301 4.3691 4.03823 4.30835C4.06346 4.24761 4.10042 4.19244 4.147 4.146C4.24071 4.05253 4.36765 4.00003 4.5 4H7.5C7.63261 4 7.75979 4.05268 7.85355 4.14645C7.94732 4.24021 8 4.36739 8 4.5V12.99H8.794L11.647 10.14C11.6931 10.0934 11.7481 10.0564 11.8088 10.0313C11.8694 10.0063 11.9344 9.99357 12 9.994H13.5C13.6326 9.994 13.7598 10.0467 13.8536 10.1404C13.9473 10.2342 14 10.3614 14 10.494V12.994H14.793L17.647 10.144C17.6931 10.097 17.748 10.0595 17.8085 10.0338C17.8691 10.0081 17.9342 9.99454 18 9.994H19.5C19.6326 9.994 19.7598 10.0467 19.8536 10.1404C19.9473 10.2342 20 10.3614 20 10.494V19.484C20 19.6166 19.9473 19.7438 19.8536 19.8376C19.7598 19.9313 19.6326 19.984 19.5 19.984L4.518 20ZM5 5L5.015 19L19 18.985V10.993H18.207L15.354 13.843C15.3075 13.8894 15.2523 13.9262 15.1915 13.9512C15.1308 13.9763 15.0657 13.9891 15 13.989H13.5C13.3674 13.989 13.2402 13.9363 13.1464 13.8426C13.0527 13.7488 13 13.6216 13 13.489V10.989H12.207L9.354 13.843C9.30748 13.8894 9.25227 13.9262 9.19153 13.9512C9.13079 13.9763 9.0657 13.9891 9 13.989H7.5C7.36739 13.989 7.24021 13.9363 7.14645 13.8426C7.05268 13.7488 7 13.6216 7 13.489V5H5Z" fill="white"/>
</svg>
