<?xml version="1.0" encoding="UTF-8"?>
<svg xmlns="http://www.w3.org/2000/svg" fill="none" viewBox="0 0 16 16"><path fill="#20607E" fill-rule="evenodd" d="M4.252 2.405a.5.5 0 0 0-.544.108L2.513 3.707a.5.5 0 0 0-.108.545l.14.34a1.5 1.5 0 0 1-.811 1.96l-.34.142a.5.5 0 0 0-.309.461v1.69a.5.5 0 0 0 .309.462l.34.14a1.5 1.5 0 0 1 .812 1.96l-.141.34a.5.5 0 0 0 .108.546l1.195 1.194a.5.5 0 0 0 .544.108l.34-.14a1.5 1.5 0 0 1 1.96.811l.142.34a.5.5 0 0 0 .462.31h1.689a.5.5 0 0 0 .462-.31l.14-.34a1.5 1.5 0 0 1 1.96-.812l.34.141a.5.5 0 0 0 .546-.108l1.194-1.194a.5.5 0 0 0 .108-.545l-.14-.34a1.5 1.5 0 0 1 .811-1.96l.34-.142a.5.5 0 0 0 .31-.461v-1.69a.5.5 0 0 0-.31-.461l-.34-.141a1.5 1.5 0 0 1-.812-1.96l.141-.34a.5.5 0 0 0-.108-.546l-1.194-1.194a.5.5 0 0 0-.545-.108l-.34.14a1.5 1.5 0 0 1-1.96-.811l-.141-.34a.5.5 0 0 0-.462-.31h-1.69a.5.5 0 0 0-.461.31l-.141.34a1.5 1.5 0 0 1-1.96.812l-.34-.141zM3.47 4.21l-.014-.032.722-.722.032.014a2.5 2.5 0 0 0 3.266-1.353l.014-.032h1.02l.014.032A2.5 2.5 0 0 0 11.79 3.47l.032-.014.722.722-.013.032a2.5 2.5 0 0 0 1.352 3.266l.032.014v1.02l-.032.014a2.5 2.5 0 0 0-1.352 3.266l.013.032-.722.722-.032-.014a2.5 2.5 0 0 0-3.266 1.354l-.013.031H7.49l-.014-.032a2.5 2.5 0 0 0-3.266-1.352l-.032.013-.721-.722.013-.032a2.5 2.5 0 0 0-1.354-3.266l-.031-.014V7.49l.032-.014A2.5 2.5 0 0 0 3.47 4.21zM6 8a2 2 0 1 1 2 2v1a3 3 0 1 0-3-3h1z" clip-rule="evenodd" style="fill: #ffffff;"/></svg>
