<?xml version="1.0" encoding="UTF-8"?>
<svg xmlns="http://www.w3.org/2000/svg" fill="none" viewBox="0 0 16 16"><path fill="#20607E" fill-rule="evenodd" d="M8 7a1 1 0 1 0 0-2 1 1 0 0 0 0 2zm0 1a2 2 0 1 0 0-4 2 2 0 0 0 0 4z" clip-rule="evenodd" style="fill: #ffffff;"/><path fill="#20607E" d="M10.5 12h4a.5.5 0 0 0 .468-.675l-.628-1.676A1 1 0 0 0 13.403 9H12l.333 1h1.07l.375 1h-1.111L13 12h-2.5zM3.667 10h-1.07l-.376 1h1.112L3 12h2.5-4a.5.5 0 0 1-.468-.675l.628-1.676A1 1 0 0 1 2.597 9H4l-.333 1z" style="fill: #ffffff;"/><path fill="#20607E" fill-rule="evenodd" d="M10.28 10H5.72l-.333 1h5.226l-.334-1zM5.72 9a1 1 0 0 0-.948.684l-.553 1.658a.5.5 0 0 0 .475.658h6.612a.5.5 0 0 0 .475-.658l-.553-1.658A1 1 0 0 0 10.279 9H5.721zM12.5 7a.5.5 0 1 0 0-1 .5.5 0 0 0 0 1zm0 1a1.5 1.5 0 1 0 0-3 1.5 1.5 0 0 0 0 3zM3.5 7a.5.5 0 1 0 0-1 .5.5 0 0 0 0 1zm0 1a1.5 1.5 0 1 0 0-3 1.5 1.5 0 0 0 0 3z" clip-rule="evenodd" style="fill: #ffffff;"/></svg>
