<?xml version="1.0" encoding="utf-8"?>
<!-- Generator: Adobe Illustrator 27.0.1, SVG Export Plug-In . SVG Version: 6.00 Build 0)  -->
<svg version="1.1" id="master-artboard" xmlns="http://www.w3.org/2000/svg" xmlns:xlink="http://www.w3.org/1999/xlink" x="0px"
	 y="0px" viewBox="0 0 1024 1024" style="enable-background:new 0 0 1024 1024;" xml:space="preserve">
<style type="text/css">
	.st0{fill:#FFFFFF;fill-opacity:0;}
	.st1{fill:#FFFFFF;}
</style>
<rect id="ee-background" class="st0" width="1024" height="1024"/>
<g transform="matrix(10.188387870788574, 0, 0, 10.188387870788574, -251.519936680809, -252.79260253906244)">
	<g>
		<path class="st1" d="M75,120.4c-24.9,0-45.3-20.5-45.3-45.4c0-5.6,1-10.9,2.9-15.9l26.5,53.3c0.3,0.7,0.8,1.3,1.6,1.3
			s1.3-0.6,1.6-1.3l12.2-27.3c0.1-0.3,0.3-0.6,0.6-0.6s0.4,0.3,0.6,0.6l12.2,27.3c0.3,0.7,0.8,1.3,1.6,1.3c0.8,0,1.3-0.6,1.6-1.3
			l26.5-53.3c1.9,5,2.9,10.3,2.9,15.9C120.3,99.9,99.9,120.4,75,120.4z M75,64.7c-0.3,0-0.4-0.3-0.6-0.6l-14.2-32
			c4.6-1.7,9.6-2.6,14.8-2.6s10.2,0.9,14.8,2.6l-14.2,32C75.4,64.5,75.3,64.7,75,64.7z M60.5,97.6c-0.3,0-0.4-0.3-0.6-0.6l-23-46.4
			C41,44.3,46.5,39,53.2,35.3l16.6,36.9C70,72.8,70.5,73,71,73h8c0.6,0,1-0.1,1.3-0.8l16.6-36.9c6.6,3.7,12.2,9,16.3,15.3L90,97
			c-0.1,0.3-0.3,0.6-0.6,0.6c-0.3,0-0.4-0.3-0.6-0.6l-8.7-19.8c-0.3-0.7-0.7-0.8-1.3-0.8h-8c-0.6,0-1,0.1-1.3,0.8L61.1,97
			C61,97.3,60.8,97.6,60.5,97.6z M75,125c27.7,0,50-22.3,50-50s-22.3-50-50-50S25,47.3,25,75S47.3,125,75,125z"/>
	</g>
</g>
</svg>
