<?xml version="1.0" encoding="UTF-8"?>
<svg xmlns="http://www.w3.org/2000/svg" fill="none" viewBox="0 0 16 16"><path fill="#20607E" fill-rule="evenodd" d="M8.583 7.232l.15-.557A2.998 2.998 0 0 0 5.666 2.9L7.955 5.19 5.127 8.018 2.838 5.73c-.045.823.247 1.66.875 2.288a2.998 2.998 0 0 0 2.899.777l.557-.149 4.322 4.322 1.414-1.414-4.322-4.322zM6.87 9.762a4 4 0 0 1-4.764-5.317c.118-.305.507-.355.738-.124l2.283 2.283L6.54 5.19 4.258 2.907c-.231-.231-.181-.62.123-.738a4 4 0 0 1 5.317 4.764l4.268 4.267a.5.5 0 0 1 0 .708l-2.121 2.12a.5.5 0 0 1-.708 0L6.87 9.762z" clip-rule="evenodd" style="fill: #ffffff;"/></svg>
